<?xml version="1.0" encoding="UTF-8"?>
<svg height="55" width="55" xmlns="http://www.w3.org/2000/svg" xmlns:xlink="http://www.w3.org/1999/xlink" version="1.1" id="crown" x="0px" y="0px" viewBox="0 0 128 128" style="enable-background:new 0 0 128 128;" xml:space="preserve">
<g id="row3">
	<path id="icon:4" style="display:none;fill:#414045;" d="M125.272,57.076c-1.578-3.829-3.749-7.015-6.38-9.458   c-2.631-2.459-5.722-4.159-9.142-5.001c-7.169-1.766-14.732,0.479-21.145,6.19c-3.404-4.655-7.662-7.18-12.249-7.18   c-3.667,0-7.119,1.634-10.079,4.655V34.414c0,0,2.877-3.994,5.755,0.924c1.957-6.124-1.184-9.524-4.242-9.854   c1.085-2.74-1.562-7.708-4.308-8.451C63.449,17,63.433,17,63.4,17c-0.033,0-0.049,0-0.082,0.033   c-2.729,0.743-5.393,5.711-4.308,8.451c-3.058,0.33-6.199,3.73-4.242,9.854c2.877-4.919,5.755-0.924,5.755-0.924v12.379   c-3.058-3.351-6.708-5.166-10.589-5.166c-4.242,0-8.287,2.228-11.575,6.322c-6.199-5.051-13.4-6.982-20.109-5.331   C11.409,44.3,5.901,49.434,2.728,57.076C-0.33,64.437-0.84,73.334,1.314,82.082c1.348,5.496,3.617,10.432,6.528,14.558V111h113.32   V95.138c2.434-3.796,4.341-8.22,5.525-13.056C128.84,73.334,128.33,64.437,125.272,57.076z M76.356,46.578   c3.535,0,6.972,2.591,9.668,7.312v0.017c2.993,5.232,4.637,12.247,4.637,19.741c0,0.429,0,0.858-0.016,1.287   c-0.164,6.025-1.43,11.736-3.502,16.258H66.08c2.039-5.199,3.091-11.24,3.091-17.546c0-6.553-1.135-12.792-3.321-18.14   C68.579,49.896,72.476,46.578,76.356,46.578z M35.645,72.806c0.131-7.626,2.006-14.839,5.212-19.856   c2.598-4.11,5.821-6.371,9.076-6.371c4.111,0,8.205,3.697,10.967,9.887v0.017c2.187,4.919,3.338,10.861,3.338,17.166v0.908   c-0.115,5.909-1.282,11.653-3.338,16.275l-0.016,0.017c-0.049,0.116-0.099,0.231-0.164,0.347H39.164   c-2.22-4.836-3.519-11.042-3.519-17.546V72.806z M6.099,80.894c-1.891-7.725-1.48-15.515,1.184-21.92   c2.549-6.14,6.856-10.25,12.134-11.554c1.184-0.281,2.368-0.429,3.584-0.429c4.258,0,8.665,1.766,12.628,5.1   c-3.141,5.843-4.916,13.551-4.916,21.556c0,0.528,0,1.056,0.016,1.568c0.164,5.794,1.266,11.29,3.075,15.978H10.193   C8.433,88.14,7.019,84.657,6.099,80.894z M22.557,107.534l-4.686-3.433l-4.686,3.433l1.792-5.546l-4.686-3.417h5.788l1.792-5.529   l1.792,5.529h5.788l-4.686,3.417L22.557,107.534z M38.029,107.534l-4.686-3.433l-4.686,3.433l1.776-5.546l-4.686-3.417h5.804   l1.792-5.529l1.776,5.529h5.804l-4.686,3.417L38.029,107.534z M53.485,107.534l-4.686-3.433l-4.686,3.433l1.792-5.546l-4.686-3.417   h5.788l1.792-5.529l1.792,5.529h5.788l-4.686,3.417L53.485,107.534z M68.957,107.534l-4.686-3.433l-4.686,3.433l1.792-5.546   l-4.686-3.417h5.788l1.792-5.529l1.792,5.529h5.788l-4.686,3.417L68.957,107.534z M84.429,107.534l-4.686-3.433l-4.686,3.433   l1.792-5.546l-4.686-3.417h5.788l1.792-5.529l1.792,5.529h5.788l-4.686,3.417L84.429,107.534z M99.885,107.534l-4.686-3.433   l-4.686,3.433l1.792-5.546l-4.686-3.417h5.804l1.776-5.529l1.792,5.529h5.804l-4.686,3.417L99.885,107.534z M115.357,107.534   l-4.686-3.433l-4.686,3.433l1.792-5.546l-4.686-3.417h5.788l1.792-5.529l1.792,5.529h5.788l-4.686,3.417L115.357,107.534z    M121.901,80.894c-0.921,3.763-2.335,7.246-4.094,10.3H92.503c1.99-5.1,3.091-11.174,3.091-17.546   c0-7.593-1.546-14.789-4.39-20.517c4.242-4.011,9.06-6.14,13.746-6.14c1.217,0,2.433,0.132,3.617,0.429   c5.278,1.304,9.602,5.414,12.151,11.554C123.381,65.378,123.792,73.169,121.901,80.894z"/>
	<path id="icon:3_1_" style="display:none;fill:#414045;" d="M23.283,105.516H1.841C0.633,101.458,0,97.227,0,92.881   C0,68.99,18.987,48.794,45.109,42.113C24.242,65.621,22.612,92.613,23.283,105.516z M78.518,41.136   c21.691,23.738,23.36,51.286,22.689,64.38h24.952c1.208-4.058,1.841-8.289,1.841-12.635C128,67.688,106.865,46.592,78.518,41.136z    M1.833,109.899V124.5h124.334v-14.601H1.833z M72.554,40.485l-1.975-6.069l12.217-8.863H67.702l-1.764-5.418   c1.534-1.589,2.57-4.422,2.57-7.638c0-4.958-2.455-8.997-5.485-8.997c-3.03,0-5.485,4.039-5.485,8.997   c0,3.216,1.036,6.049,2.589,7.638l-1.764,5.418H43.248l12.217,8.863c0,0-3.184,6.222-3.778,6.317   C28.04,64.281,26.409,92.671,27.119,105.516h34.848v-64.38h3.89l-0.054,64.38h31.569C98.081,92.613,96.451,64.07,72.554,40.485z"/>
	<path id="icon:2" style="display:none;fill:#414045;" d="M0,46.863l22.818,50.579H39.26L18.346,48.509   C11.511,49.256,5.186,48.662,0,46.863z M35.673,43.996c-4.659,1.917-9.318,3.241-13.824,4.021l21.118,49.425h12.361L43.035,40.416   C40.723,41.722,38.257,42.927,35.673,43.996z M84.421,39.194L71.872,97.442H58.814L46.13,38.549   C55.991,32.221,62.742,23.941,64.748,16C66.84,24.212,73.998,32.797,84.421,39.194z M71.566,45.014   c0-6.464-3.061-11.707-6.818-11.707c-3.775,0-6.818,5.243-6.818,11.707s3.044,11.707,6.818,11.707   C68.506,56.721,71.566,51.478,71.566,45.014z M93.841,43.996c-2.21-0.916-4.319-1.917-6.325-3.02L75.341,97.442h12.361   l21.05-49.256C103.906,47.457,98.874,46.066,93.841,43.996z M112.272,48.611L91.409,97.442h13.994L128,47.338   C123.409,48.679,118.036,49.12,112.272,48.611z M22.818,100.836V112l82.584-0.119v-11.046H22.818z"/>
	<path id="icon:1" style="display:none;fill:#414045;" d="M94.531,34.929c-6.6,0-12.749,2.246-17.939,6.118   c-3.838-2.072-8.108-3.214-12.592-3.214s-8.754,1.142-12.592,3.214c-5.19-3.872-11.339-6.118-17.939-6.118   C15.021,34.929,0,52.47,0,74.058c0,12.295,4.876,23.292,12.514,30.456V119.5h102.972v-14.986C123.124,97.35,128,86.353,128,74.058   C128,52.47,112.979,34.929,94.531,34.929z M21.405,104.011c-9.185-5.402-15.53-16.806-15.53-29.952   c0-18.374,12.377-33.321,27.594-33.321c4.641,0,9.009,1.375,12.828,3.834c-7.775,6.544-12.828,17.309-12.828,29.488   s5.053,22.924,12.828,29.468c0.176,0.174,0.352,0.329,0.548,0.484H21.405z M106.595,104.011H81.155   c0.196-0.155,0.372-0.31,0.548-0.484c7.775-6.544,12.828-17.29,12.828-29.468s-5.053-22.943-12.828-29.488   c3.819-2.459,8.186-3.834,12.828-3.834c15.217,0,27.594,14.947,27.594,33.321C122.125,87.205,115.78,98.609,106.595,104.011z    M77.739,16.076V28.09h-3.053v-3.079h-7.511v7.637h2.9v3.018H57.924v-3.018h3.145v-7.637h-7.755v3.079h-3.053V16.076h3.053v2.898   h7.755v-7.456h-3.145V8.5h12.151v3.018h-2.9v7.456h7.511v-2.898H77.739z"/>
</g>
<g id="row2">
	<path id="icon:4_3_" style="display:none;fill:#414045;" d="M128,42.546l-19.269,48.549H19.269L0,42.546l32.903,40.542   l0.387-50.977l17.936,50.21L62.495,27l12.344,56.654L94.71,32.111l0.344,50.977L128,42.546z M19.269,95.354V101h89.462v-5.646   H19.269z"/>
	<path id="icon:3_4_" style="display:none;fill:#414045;" d="M128,62.528L114.668,95H10.889L0,62.528c0,0,13.843,9.591,17.435,8.268   c3.592-1.307,8.51-18.63,8.51-18.63s11.176,9.323,17.164,9.181c5.987-0.126,4.662-13.512,4.662-13.512l16.094-14.709L64.008,33   l0.128,0.126L80.23,47.835c0,0-1.325,13.386,4.662,13.512c5.987,0.142,17.164-9.181,17.164-9.181s4.918,17.323,8.51,18.63   C114.157,72.118,128,62.528,128,62.528z"/>
	<path id="icon:2_2_" style="display:none;fill:#414045;" d="M128,54.556c0,3.353-2.757,6.084-6.141,6.084   c-0.153,0-0.322,0-0.475-0.03L110.664,93c-4.196-3.247-23.416-5.689-46.495-5.689c-23.064,0-42.284,2.443-46.48,5.689L7.274,61.55   c-0.368,0.076-0.75,0.106-1.133,0.106C2.757,61.656,0,58.925,0,55.572c0-3.368,2.757-6.099,6.141-6.099   c3.4,0,6.157,2.731,6.157,6.099c0,1.639-0.643,3.11-1.7,4.187c4.885,5.386,11.348,11.682,14.748,11.682   c5.559,0,7.259-10.59,7.734-18.934c-3.308-0.106-5.927-2.792-5.927-6.084c0-3.353,2.741-6.084,6.141-6.084   c3.4,0,6.156,2.731,6.156,6.084c0,2.078-1.057,3.914-2.665,5.007c3.14,6.372,8.224,13.897,14.687,13.897   c8.5,0,11.318-10.544,12.252-18.145c-3.185-0.228-5.697-2.867-5.697-6.084c0-3.368,2.741-6.099,6.141-6.099   c3.4,0,6.157,2.731,6.157,6.099c0,3.019-2.205,5.522-5.115,6.008c1.501,7.616,5.054,18.221,13.186,18.221   c5.942,0,10.552-7.358,13.431-13.684c-1.807-1.047-3.002-2.989-3.002-5.219c0-3.353,2.757-6.084,6.156-6.084   c3.4,0,6.157,2.731,6.157,6.084c0,3.307-2.649,5.993-5.957,6.084c0.429,8.344,2.098,18.934,7.811,18.934   c5.498,0,11.608-6.235,15.835-11.591c-1.868-1.047-3.124-3.034-3.124-5.295c0-3.368,2.757-6.099,6.157-6.099   C125.243,48.457,128,51.188,128,54.556z"/>
	<path id="icon:1_4_" style="fill:#414045;" d="M127.634,40.665l-22.146,48.792H20.688L0.366,40.665   c-1.631-3.691,2.513-7.259,5.937-5.112L28.11,49.225l13.002,26.261h13.659V68L43.242,51.762c-1.065-1.5-0.996-3.523,0.168-4.948   L60.82,25.507c1.641-2.009,4.718-2.009,6.36,0L84.59,46.815c1.164,1.424,1.232,3.448,0.168,4.948L73.229,68v7.486h13.659   L99.89,49.225l21.807-13.672C125.121,33.406,129.264,36.974,127.634,40.665z M105.488,93.548H20.688V104h84.801V93.548z"/>
</g>
<g id="row1">
	<path id="icon:4_2_" style="display:none;fill:#414045;" d="M116.444,78.095v12.333H11.556V78.095L0,27   c14.222,3.154,18.738,21.337,18.738,21.337c20.484,9.276-0.96,22.059-0.96,22.059v2.696l5.724,5.004h27.982l5.475-11.752l0,0   c-1.778,1.462-4.071,2.326-6.578,2.326C44.658,68.669,40,64.053,40,58.362c0-5.127,3.769-9.373,8.693-10.166   c0.516-9.708,15.84-17.496,15.84-17.496S80,38.558,80.409,48.319c4.64,1.022,8.107,5.127,8.107,10.043   c0,5.691-4.658,10.307-10.4,10.307c-2.542,0-4.853-0.898-6.667-2.396l0,0l5.493,11.822h27.556l5.724-5.004v-2.696   c0,0-21.707-12.034-0.96-22.059c0,0,5.92-18.923,18.738-21.337L116.444,78.095z M116.524,93.952H11.476V101h105.049V93.952z"/>
	<path id="icon:3_2_" style="display:none;fill:#414045;" d="M125.757,52.623c-9.199-17.66-36.338-16.31-51.516-5.437   c-0.622,0.45-1.244,0.9-1.847,1.332c0.512-1.08,0.805-2.286,0.805-3.564c0-3.6-2.304-6.697-5.614-8.029v-8.533h8.211v-8.497h-8.211   V13h-7.407v6.895h-8.193v8.497h8.193v8.533c-3.31,1.332-5.614,4.429-5.614,8.029c0,1.17,0.238,2.286,0.695,3.312   c-0.494-0.36-1.006-0.72-1.499-1.08C38.58,36.313,11.441,34.963,2.243,52.623c-9.199,17.66,12.875,51.63,12.875,51.63V115h97.528   v-10.747h0.238C112.883,104.253,134.956,70.283,125.757,52.623z M66.871,104.253h-5.742V53.307   c0.878,0.252,1.792,0.396,2.761,0.396c1.042,0,2.048-0.162,2.981-0.468V104.253z"/>
	<path id="icon:2_3_" style="display:none;fill:#414045;" d="M128,53.279c0,5.043-4.084,9.136-9.117,9.136   c-0.091,0-0.164,0-0.255-0.018l-8.914,34.06H18.286L8.734,65.01C3.884,64.81,0,60.808,0,55.892c0-5.043,4.084-9.136,9.117-9.136   c5.032,0,9.117,4.093,9.117,9.136c0,1.042-0.182,2.065-0.492,2.997l22.081,12.919l18.671-34.371   c-2.571-1.608-4.267-4.477-4.267-7.729c0-5.043,4.084-9.136,9.117-9.136s9.117,4.093,9.117,9.136c0,3.252-1.696,6.121-4.267,7.729   l18.671,34.371l24.05-14.07c-0.729-1.316-1.149-2.832-1.149-4.459c0-5.062,4.084-9.136,9.117-9.136   C123.916,44.143,128,48.218,128,53.279z M109.714,100.114H18.286v7.314h91.429V100.114z"/>
	<path id="icon:1_1_" style="display:none;fill:#414045;" d="M128,51.189l-16.968,32.441h-0.25v12.203h-93.57V83.629h-0.244   L0,51.189l16.968,3.196l0.685-0.153c-0.441,1.029-0.685,2.161-0.685,3.35c0,4.801,3.98,8.713,8.896,8.713s8.896-3.912,8.896-8.713   c0-2.8-1.351-5.306-3.453-6.897l5.759-8.604l8.514,4.973c-0.461,1.425-0.593,3.1-0.31,4.826c0.738,4.487,4,7.715,7.288,7.217   c3.288-0.511,5.357-4.558,4.619-9.058c-0.237-1.47-0.751-2.8-1.45-3.918l0.283-0.045l-3.954-7.031l11.861-9.141l0.086-0.07   l0.079,0.07l11.861,9.141l-3.954,7.031l0.283,0.045c-0.698,1.119-1.212,2.448-1.45,3.918c-0.738,4.5,1.331,8.546,4.619,9.058   c3.288,0.499,6.55-2.729,7.288-7.217c0.283-1.726,0.152-3.401-0.31-4.826l8.514-4.973l5.759,8.604   c-2.102,1.592-3.453,4.097-3.453,6.897c0,4.801,3.98,8.713,8.896,8.713s8.896-3.912,8.896-8.713c0-1.189-0.244-2.32-0.685-3.35   l0.685,0.153L128,51.189z"/>
</g>
</svg>